<svg id="Layer_1" enable-background="new 0 0 512 512" height="512" viewBox="0 0 512 512" width="512" xmlns="http://www.w3.org/2000/svg"><g clip-rule="evenodd" fill-rule="evenodd"><path d="m247.2 77.557h-189.623c-8.559 0-15.559 6.996-15.559 15.55v10.792c0 3.371 2.749 6.146 6.15 6.146h25.818 91.198 87.798 29.218 7.397c4.308 0 7.68-4.419 5.895-8.866-7.992-19.855-29.644-23.622-48.292-23.622z" fill="#9b9b9b"/><path d="m264.46 373.319 220.486-30.165c-.085-42.911.057-43.761 0-67.072.142-13.199-4.874-30.958-26.838-34.131-21-3.031-28.879-4.815-38.202-15.89l-52.372-60.133c-15.502-16.286-19.923-20.733-34.575-20.733h-85.7-137.508-65.891c-9.806 0-17.826 8.016-17.826 17.816v180.143z" fill="#ececec"/><path d="m61.828 343.154h-35.793-1.389c-9.409 0-17.089 7.676-17.089 17.08s7.68 17.108 17.089 17.108h63.425c.85-13.284 6.518-25.265 15.275-34.187h-41.518z" fill="#acacac"/><path d="m485.087 343.154h-78.559c3.854 3.909 7.085 8.384 9.579 13.312.964 1.841 1.785 3.739 2.522 5.721 1.757 4.758 2.862 9.857 3.202 15.154h65.494c9.409 0 17.117-7.704 17.117-17.108s-7.708-17.08-17.117-17.08h-2.238z" fill="#acacac"/><path d="m191.512 343.154h-31.542c3.826 3.909 7.085 8.384 9.579 13.312.935 1.841 1.785 3.739 2.522 5.721 1.757 4.758 2.862 9.857 3.174 15.154h23.777 145.611c.85-13.284 6.518-25.265 15.304-34.187-56.141 0-112.283 0-168.425 0z" fill="#acacac"/><path d="m295.492 101.179c-7.992-19.855-29.644-23.622-48.292-23.622h-39.138c18.648 0 40.3 3.767 48.291 23.622 1.785 4.447-1.615 8.866-5.923 8.866h2.551 29.219 7.397c4.308 0 7.68-4.419 5.895-8.866z" fill="#838383"/><path d="m236.063 180.006h-165.194c-4.506 0-8.19 3.682-8.19 8.186v42.996c0 4.504 3.684 8.186 8.19 8.186h165.194c4.506 0 8.19-3.682 8.19-8.186v-42.996c0-4.504-3.684-8.186-8.19-8.186z" fill="#a6e7f0"/><path d="m93.371 343.154c-8.785 8.922-14.453 20.903-15.304 34.187-.057 1.133-.113 2.266-.113 3.427 0 29.656 24.061 53.675 53.704 53.675 29.672 0 53.704-24.019 53.704-53.675 0-1.161-.028-2.294-.113-3.427-.822-13.284-6.518-25.265-15.275-34.187-9.749-9.914-23.324-16.06-38.316-16.06s-28.567 6.147-38.287 16.06z" fill="#838383"/><path d="m110.346 380.769c0 11.783 9.551 21.3 21.312 21.3 11.789 0 21.34-9.517 21.34-21.3 0-11.755-9.551-21.3-21.34-21.3-11.761 0-21.312 9.545-21.312 21.3z" fill="#e6e6e6"/><path d="m388.221 327.094c29.672 0 53.704 24.047 53.704 53.675 0 29.656-24.032 53.675-53.704 53.675-29.644 0-53.704-24.019-53.704-53.675-.001-29.628 24.06-53.675 53.704-53.675z" fill="#838383"/><path d="m366.909 380.769c0 11.783 9.551 21.3 21.312 21.3 11.789 0 21.34-9.517 21.34-21.3 0-11.755-9.551-21.3-21.34-21.3-11.762 0-21.312 9.545-21.312 21.3z" fill="#e6e6e6"/><path d="m444.617 292.623c0 5.75 4.733 10.48 10.486 10.48h29.842v-28.834h-29.842c-5.753 0-10.486 4.73-10.486 10.48z" fill="#a6e7f0"/><path d="m151.383 343.154c8.7 8.894 14.312 20.818 15.162 34.046.057 1.133.113 2.294.113 3.427 0 26.597-19.356 48.661-44.721 52.938 3.146.566 6.405.878 9.721.878 29.672 0 53.704-24.019 53.704-53.675 0-1.161-.028-2.294-.113-3.427-.34-5.297-1.445-10.395-3.202-15.154-.227-.651-.482-1.303-.737-1.954-.538-1.275-1.134-2.549-1.757-3.767-2.522-4.928-5.753-9.404-9.579-13.312-9.749-9.914-23.324-16.06-38.316-16.06-3.061 0-6.065.255-8.984.765 11.109 2.011 21 7.449 28.567 15.154.057.056.085.084.142.141z" fill="#595959"/><path d="m407.945 343.154c8.7 8.894 14.34 20.818 15.162 34.046.085 1.133.113 2.294.113 3.427 0 26.597-19.356 48.661-44.721 52.938 3.146.566 6.405.878 9.721.878 29.672 0 53.704-24.019 53.704-53.675 0-1.161-.028-2.294-.113-3.427-.312-5.297-1.417-10.395-3.202-15.154-.227-.651-.482-1.303-.737-1.954-.538-1.275-1.134-2.549-1.757-3.767-2.494-4.928-5.753-9.404-9.579-13.312-9.749-9.914-23.296-16.06-38.316-16.06-3.061 0-6.036.255-8.955.765 11.081 2.011 20.972 7.449 28.538 15.154h.028c.029.056.086.084.114.141z" fill="#595959"/><path d="m462.84 274.269v28.834h22.077c.028-2.832.028-5.382.028-7.902v-19.119-1.048c0-.255 0-.51 0-.765z" fill="#6bd9e7"/><path d="m217.585 198.162h-64.134-90.773v-9.97c0-4.504 3.684-8.186 8.19-8.186h165.194c4.506 0 8.19 3.682 8.19 8.186v42.996c0 4.504-3.684 8.186-8.19 8.186h-10.287v-33.026c0-4.504-3.684-8.186-8.19-8.186z" fill="#6bd9e7"/><path d="m361.836 221.218-26.753-33.281c-4.251-5.297-8.049-7.931-15.87-7.931h-34.915c-1.814 0-3.316 1.133-3.401 2.521l.085 44.724c0 5.75 5.356 11.67 13.858 11.67h72.494c1.615-.057 2.891-1.105 2.891-2.351v-3.144c0-4.249-2.183-4.504-8.389-12.208z" fill="#a6e7f0"/><path d="m319.212 180.006h-26.072c7.822 0 11.619 2.634 15.899 7.931l26.725 33.281c6.206 7.704 8.389 7.959 8.389 12.208v3.144c0 1.246-1.275 2.294-2.891 2.351h26.073c1.615-.057 2.891-1.105 2.891-2.351v-3.144c0-4.249-2.182-4.504-8.389-12.208l-26.753-33.281c-4.252-5.297-8.05-7.931-15.872-7.931z" fill="#6bd9e7"/><path d="m463.01 274.269c-.028 8.582-.028 18.326-.028 28.834h21.935c.028-2.832.028-5.382.028-7.902v-19.119-1.048-.765z" fill="#6bd9e7"/><path d="m452.439 241.101c7.708 6.713 10.174 16.74 10.401 25.294.028.623.028 1.218 0 1.813v6.061h.17 21.935c-.34-12.944-5.838-29.287-26.838-32.318-1.984-.283-3.882-.566-5.668-.85z" fill="#cecece"/><path d="m463.01 274.269-.028 28.834h21.935c.028-2.832.028-5.382.028-7.902v-19.119-1.048-.765z" fill="#6bd9e7"/><path d="m484.917 303.103h-21.935-.142v40.051h22.105c-.057-20.762-.028-31.695-.028-40.051z" fill="#cecece"/></g><path d="m308.443 264.163h-27.49c-4.174 0-7.557 3.383-7.557 7.557s3.383 7.557 7.557 7.557h27.49c4.174 0 7.557-3.383 7.557-7.557s-3.383-7.557-7.557-7.557z"/><path d="m131.658 351.912c-15.919 0-28.869 12.945-28.869 28.857 0 15.911 12.95 28.857 28.869 28.857 15.934 0 28.897-12.945 28.897-28.857s-12.963-28.857-28.897-28.857zm0 42.6c-7.584 0-13.756-6.165-13.756-13.743s6.172-13.744 13.756-13.744c7.6 0 13.783 6.166 13.783 13.744s-6.183 13.743-13.783 13.743z"/><path d="m388.221 351.912c-15.918 0-28.868 12.945-28.868 28.857 0 15.911 12.95 28.857 28.868 28.857 15.934 0 28.897-12.945 28.897-28.857-.001-15.912-12.963-28.857-28.897-28.857zm0 42.6c-7.584 0-13.755-6.165-13.755-13.743s6.17-13.744 13.755-13.744c7.6 0 13.783 6.166 13.783 13.744s-6.183 13.743-13.783 13.743z"/><path d="m492.501 336.147v-59.984c.006-.566-.002-1.124-.011-1.681.002-.072.011-.142.011-.214 0-.135-.013-.266-.02-.399-.578-21.796-12.882-36.454-33.268-39.398-20.942-3.019-26.133-4.494-33.527-13.278-.026-.032-.054-.064-.082-.096l-52.373-60.133c-.073-.084-.147-.166-.225-.247-15.536-16.324-21.968-23.081-40.049-23.081h-72.418v-20.037h29.058c4.619 0 8.936-2.306 11.547-6.168 2.597-3.84 3.106-8.726 1.359-13.075-7.575-18.817-26.115-28.356-55.111-28.356-.065 0-.136 0-.201 0l-86.975.113c-4.174.005-7.553 3.393-7.547 7.566.005 4.17 3.388 7.547 7.557 7.547h.01l86.977-.113h.188c21.616 0 34.866 5.691 40.419 17.375h-238.244v-9.381c0-2.129.843-4.141 2.37-5.665 1.509-1.502 3.489-2.329 5.592-2.329h.026l68.3.113h.013c4.168 0 7.55-3.375 7.557-7.544.008-4.173-3.37-7.563-7.544-7.569h-68.264c-6.149.03-11.969 2.26-16.35 6.625-4.394 4.38-6.815 10.193-6.815 16.369v10.792c0 7.556 6.148 13.703 13.706 13.703h18.261v20.037h-22.568c-13.996 0-25.382 11.382-25.382 25.373v173.367c-10.614 2.744-18.478 12.398-18.478 23.855 0 13.6 11.056 24.664 24.646 24.664h45.906c2.134 31.843 28.717 57.102 61.106 57.102 32.39 0 58.973-25.259 61.107-57.102h57.043c4.174 0 7.557-3.383 7.557-7.557s-3.383-7.557-7.557-7.557h-57.895c-1.241-6.816-3.61-13.24-6.914-19.074h149.906c-3.302 5.834-5.67 12.258-6.911 19.074h-43.555c-4.174 0-7.557 3.383-7.557 7.557 0 4.173 3.383 7.557 7.557 7.557h42.704c2.132 31.843 28.702 57.102 61.078 57.102 32.39 0 58.973-25.259 61.106-57.102h37.999c13.605 0 24.674-11.064 24.674-24.664 0-11.813-8.37-21.705-19.499-24.087zm-15.113-40.6h-22.285c-1.587 0-2.929-1.338-2.929-2.923v-7.874c0-1.584 1.342-2.923 2.929-2.923h22.285zm-304.647-177.945h72.685v20.037h-72.685zm-91.198 0h76.084v20.037h-76.084zm-10.139 252.183h-46.758c-5.256 0-9.532-4.285-9.532-9.551 0-5.251 4.276-9.523 9.532-9.523h53.672c-3.304 5.834-5.673 12.257-6.914 19.074zm60.254 57.102c-25.445 0-46.148-20.688-46.148-46.118s20.702-46.118 46.148-46.118c25.445 0 46.148 20.688 46.148 46.118 0 25.429-20.702 46.118-46.148 46.118zm41.31-91.29c-10.901-9.968-25.406-16.06-41.31-16.06s-30.409 6.092-41.31 16.06h-56.756v-172.586c0-5.657 4.606-10.259 10.268-10.259h289.097c11.144 0 13.57 2.072 28.987 18.266l52.222 59.961c11.282 13.374 21.891 15.425 42.889 18.452 12.27 1.772 17.476 9.206 19.383 17.282h-21.335c-9.949 0-18.043 8.091-18.043 18.037v7.874c0 9.945 8.094 18.036 18.043 18.036h22.285v24.937h-47.857c-10.901-9.968-25.406-16.06-41.31-16.06-15.897 0-30.395 6.092-41.291 16.06zm215.253 91.29c-25.43 0-46.119-20.688-46.119-46.118s20.69-46.118 46.119-46.118c25.445 0 46.148 20.688 46.148 46.118-.001 25.429-20.703 46.118-46.148 46.118zm99.105-57.102h-38.85c-1.241-6.816-3.61-13.24-6.914-19.074h45.765c5.271 0 9.56 4.272 9.56 9.523-.001 5.266-4.29 9.551-9.561 9.551z"/><path d="m236.063 172.449h-165.194c-8.683 0-15.747 7.062-15.747 15.742v42.997c0 8.68 7.064 15.743 15.747 15.743h165.195c8.682 0 15.746-7.062 15.746-15.743v-42.997c0-8.68-7.064-15.742-15.747-15.742zm-90.169 59.368h-75.025c-.331 0-.634-.3-.634-.629v-42.997c0-.329.303-.629.634-.629h75.026v44.255zm90.802-.629c0 .329-.302.629-.633.629h-75.055v-44.255h75.055c.331 0 .633.3.633.629z"/><path d="m294.698 246.619h72.522c.135 0 .269-.004.404-.011 5.616-.301 10.015-4.648 10.015-9.897v-3.172c0-5.784-2.661-8.653-5.477-11.69-1.186-1.279-2.662-2.871-4.544-5.217-.002-.002-.004-.004-.006-.007l-26.765-33.296c-5.208-6.446-10.904-10.739-21.777-10.739h-34.887c-5.806 0-10.614 4.224-10.944 9.616-.01.157-.015.314-.014.472l.057 44.686c.001 9.26 8.189 19.255 21.416 19.255zm24.373-58.915c5.07 0 6.864 1.216 10.008 5.108l26.749 33.276c1.905 2.375 3.465 4.103 4.678 5.417h-65.807c-4.453 0-6.301-2.697-6.301-4.151l-.05-39.65z"/></svg>