<svg id="Layer_1" height="512" viewBox="0 0 512 512" width="512" xmlns="http://www.w3.org/2000/svg" data-name="Layer 1"><path d="m186.79 169.77h138.42v142.2h-138.42z" fill="#c6ac95"/><path d="m186.79 170.77h30v141.2h-30z" fill="#efccac"/><path d="m373.31 242.18.55 228.72h84.48v-228.72z" fill="#c6ac95"/><path d="m342.46 292.75v18.22h-17.25-16.14v-18.22h-37.38v18.22h-31.38v-18.22h-37.38v18.22h-16.14-17.25v-18.22h-35.4v176.15h243.72v-176.15z" fill="#c19678"/><path d="m301.05 38.22-45.01 19.59h-.04v-40.73h.04z" fill="#50dd5a"/><path d="m289.91 467.78v1.12h-67.82v-45.56a28.332 28.332 0 0 1 13.81-24.34l20.1-12 20.1 12a28.332 28.332 0 0 1 13.81 24.34z" fill="#7b86c8"/><path d="m451.38 181.4v18.22h-24.23v-18.22h-22.65v18.22h-24.23v-18.22h-22.65v54.66a10.119 10.119 0 0 0 10.12 10.12h96.17a10.119 10.119 0 0 0 10.12-10.12v-54.66z" fill="#c79a83"/><path d="m277.3 232.19v28.64h-42.6v-28.64a21.3 21.3 0 0 1 42.6 0z" fill="#ae8567"/><path d="m256 78.59-85.38 92.18h170.76z" fill="#e26764"/><path d="m403.32 246.18h-30l.54 224.72h30z" fill="#efccac"/><path d="m256 78.59-85.38 92.18h30l70.38-75.985z" fill="#f97d7a"/><path d="m134.14 292.75h30v176.15h-30z" fill="#ad826a"/><path d="m387.62 236.06v-36.44h-7.35v-18.22h-22.65v54.66a10.119 10.119 0 0 0 10.12 10.12h30a10.119 10.119 0 0 1 -10.12-10.12z" fill="#f2c0aa"/><path d="m53.66 243.2v226.7h85.48l-.45-225.72z" fill="#c6ac95"/><path d="m78.09 246.18h-24.43v223.72h30v-223.72z" fill="#efccac"/><path d="m131.73 181.4v18.22h-24.23v-18.22h-22.65v18.22h-24.23v-18.22h-22.65v54.66a10.119 10.119 0 0 0 10.12 10.12h96.17a10.119 10.119 0 0 0 10.12-10.12v-54.66z" fill="#c79a83"/><path d="m67.97 236.06v-36.44h-7.35v-18.22h-22.65v54.66a10.119 10.119 0 0 0 10.12 10.12h30a10.119 10.119 0 0 1 -10.12-10.12z" fill="#f2c0aa"/><path d="m235.9 399a28.332 28.332 0 0 0 -13.81 24.34v45.56h23v-45.56a28.332 28.332 0 0 1 13.81-24.34l8.6-5.134-11.5-6.866z" fill="#6c7bb7"/><path d="m463.15 468.9h-414.3a23.029 23.029 0 0 0 -23.03 23.03v4.3h460.36v-4.3a23.029 23.029 0 0 0 -23.03-23.03z" fill="#8890a4"/><path d="m78.85 468.9h-30a23.029 23.029 0 0 0 -23.03 23.03v4.3h30v-4.3a23.029 23.029 0 0 1 23.03-23.03z" fill="#b0bbd1"/><g fill="#284268"><path d="m151.18 348.27h14.51a6 6 0 0 0 0-12h-14.51a6 6 0 0 0 0 12z"/><path d="m219.89 363.46h18.56a6 6 0 0 0 0-12h-18.56a6 6 0 1 0 0 12z"/><path d="m325.05 394.84h15.52a6 6 0 0 0 0-12h-15.52a6 6 0 0 0 0 12z"/><path d="m165.43 391.88a6 6 0 0 0 6 6h14.51a6 6 0 0 0 0-12h-14.51a6 6 0 0 0 -6 6z"/><path d="m410.16 405.04a6 6 0 0 0 6 6h17.55a6 6 0 0 0 0-12h-17.55a6 6 0 0 0 -6 6z"/><path d="m90.78 399.04h-17.55a6 6 0 0 0 0 12h17.55a6 6 0 1 0 0-12z"/><path d="m283.67 350.13h14.51a6 6 0 0 0 0-12h-14.51a6 6 0 1 0 0 12z"/><path d="m234.7 266.83h42.6a6 6 0 0 0 6-6v-28.64a27.3 27.3 0 1 0 -54.6 0v28.64a6 6 0 0 0 6 6zm6-34.64a15.3 15.3 0 0 1 30.6 0v22.64h-30.6z"/><path d="m209.13 191.31a6 6 0 0 0 -6 6v4.61a6 6 0 0 0 12 0v-4.61a6 6 0 0 0 -6-6z"/><path d="m209.13 214.09a6 6 0 0 0 -6 6v37.5a6 6 0 0 0 12 0v-37.5a6 6 0 0 0 -6-6z"/><path d="m419.46 311.9a6 6 0 0 0 -6-6h-16.53a6 6 0 1 0 0 12h16.53a6 6 0 0 0 6-6z"/><path d="m125.63 273.26a6 6 0 0 0 -6-6h-16.54a6 6 0 0 0 0 12h16.54a6 6 0 0 0 6-6z"/><path d="m464.34 462.93v-210.772a16.128 16.128 0 0 0 15.69-16.1v-54.658a6 6 0 0 0 -6-6h-22.65a6 6 0 0 0 -6 6v12.22h-12.23v-12.22a6 6 0 0 0 -6-6h-22.65a6 6 0 0 0 -6 6v12.22h-12.23v-12.22a6 6 0 0 0 -6-6h-22.65a6 6 0 0 0 -6 6v54.66a16.128 16.128 0 0 0 15.69 16.1v34.59h-24.85a6 6 0 0 0 -6 6v12.22h-5.25v-128.2h10.17a6 6 0 0 0 4.4-10.077l-83.78-90.455v-14.478l41.444-18.038a6 6 0 0 0 .156-10.932l-42.324-19.879a6 6 0 0 0 -11.276 2.859v60.468l-83.782 90.455a6 6 0 0 0 4.4 10.077h10.17v128.2h-5.25v-12.22a6 6 0 0 0 -6-6h-24.848v-34.592a16.128 16.128 0 0 0 15.69-16.1v-54.658a6 6 0 0 0 -6-6h-22.65a6 6 0 0 0 -6 6v12.22h-12.23v-12.22a6 6 0 0 0 -6-6h-22.65a6 6 0 0 0 -6 6v12.22h-12.23v-12.22a6 6 0 0 0 -6-6h-22.65a6 6 0 0 0 -6 6v54.66a16.128 16.128 0 0 0 15.69 16.1v210.77a29.062 29.062 0 0 0 -27.84 29v4.3a6 6 0 0 0 6 6h460.36a6 6 0 0 0 6-6v-4.3a29.062 29.062 0 0 0 -27.84-29zm-202.34-436.422 24.493 11.5-24.493 10.664zm101.62 209.552v-48.66h10.65v12.22a6 6 0 0 0 6 6h24.23a6 6 0 0 0 6-6v-12.22h10.65v12.22a6 6 0 0 0 6 6h24.23a6 6 0 0 0 6-6v-12.22h10.65v48.66a4.124 4.124 0 0 1 -4.12 4.12h-96.17a4.124 4.124 0 0 1 -4.12-4.12zm-107.62-148.641 71.644 77.351h-96.644a6 6 0 0 0 0 12h88.21v128.2h-4.14v-12.22a6 6 0 0 0 -6-6h-37.38a6 6 0 0 0 -6 6v12.22h-19.38v-12.22a6 6 0 0 0 -6-6h-37.38a6 6 0 0 0 -6 6v12.22h-4.14v-128.2h16.21a6 6 0 0 0 0-12h-24.644zm-92.46 211.331v12.22a6 6 0 0 0 6 6h33.39a6 6 0 0 0 6-6v-12.22h25.38v12.22a6 6 0 0 0 6 6h31.38a6 6 0 0 0 6-6v-12.22h25.38v12.22a6 6 0 0 0 6 6h33.39a6 6 0 0 0 6-6v-12.22h23.4v31.45h-11.38a6 6 0 0 0 0 12h11.38v49.34a6 6 0 1 0 12 0v-26.06h15.43a6 6 0 0 0 0-12h-15.43v-60.73a6 6 0 0 0 -4.55-5.816v-34.754h73.03v10.19h-15.87a6 6 0 0 0 0 12h15.87v172.25h-14.92a6 6 0 1 0 0 12h14.92v4.28h-68.48v-50.4a6 6 0 0 0 -12 0v21.97h-12.39a6 6 0 0 0 0 12h12.39v16.43h-75.95v-28.75h25.51a6 6 0 0 0 0-12h-25.549a34.487 34.487 0 0 0 -16.695-28.3l-20.1-12a6 6 0 0 0 -6.152 0l-20.1 12a34.49 34.49 0 0 0 -16.734 29.49v19.23h-16.33a6 6 0 1 0 0 12h16.33v8.33h-75.95v-36.68h11.38a6 6 0 0 0 0-12h-11.38v-115.47zm120.37 124.59v39.56h-55.82v-39.56a22.435 22.435 0 0 1 10.886-19.188l17.024-10.164 17.027 10.165a22.436 22.436 0 0 1 10.883 19.187zm-239.94-187.28v-48.66h10.65v12.22a6 6 0 0 0 6 6h24.23a6 6 0 0 0 6-6v-12.22h10.65v12.22a6 6 0 0 0 6 6h24.23a6 6 0 0 0 6-6v-12.22h10.65v48.66a4.124 4.124 0 0 1 -4.12 4.12h-96.17a4.124 4.124 0 0 1 -4.12-4.12zm72.79 130.43h11.38v52.334a5.817 5.817 0 0 0 0 2.792v20.954h-15.43a6 6 0 1 0 0 12h15.43v8.33h-68.48v-141.96h15.83a6 6 0 1 0 0-12h-15.83v-56.76h73.03v34.754a6 6 0 0 0 -4.55 5.816v61.74h-11.38a6 6 0 1 0 0 12zm-84.86 123.74a17.054 17.054 0 0 1 16.95-15.33h414.3a17.054 17.054 0 0 1 16.95 15.33z"/></g></svg>